<svg width="25" height="12" viewBox="0 0 25 12" fill="white" xmlns="http://www.w3.org/2000/svg">
<path opacity="0.35" d="M2.66703 0.833252H19.3337C20.5303 0.833252 21.5004 1.8033 21.5004 2.99992V8.99992C21.5004 10.1965 20.5303 11.1666 19.3337 11.1666H2.66703C1.47041 11.1666 0.500366 10.1965 0.500366 8.99992V2.99992C0.500366 1.8033 1.47042 0.833252 2.66703 0.833252Z" stroke="white"/>
<path opacity="0.4" d="M23.0004 3.99991V7.99991C23.8051 7.66113 24.3284 6.87304 24.3284 5.99991C24.3284 5.12678 23.8051 4.33868 23.0004 3.99991" fill="white"/>
<path d="M2.00037 3.66659C2.00037 2.93021 2.59732 2.33325 3.3337 2.33325H18.667C19.4034 2.33325 20.0004 2.93021 20.0004 3.66659V8.33325C20.0004 9.06963 19.4034 9.66659 18.667 9.66659H3.3337C2.59732 9.66659 2.00037 9.06963 2.00037 8.33325V3.66659Z" fill="white"/>
</svg>
