<svg width="80" height="80" viewBox="0 0 80 80" fill="none" xmlns="http://www.w3.org/2000/svg">
<path fill-rule="evenodd" clip-rule="evenodd" d="M40 80C62.0914 80 80 62.0914 80 40C80 17.9086 62.0914 0 40 0C17.9086 0 0 17.9086 0 40C0 62.0914 17.9086 80 40 80ZM35.4253 26.904L52.7587 38.9035C53.1187 39.1528 53.3333 39.5621 53.3333 39.9995C53.3333 40.4368 53.1187 40.8461 52.7587 41.0968L35.4253 53.0963C35.0173 53.3776 34.4867 53.4123 34.048 53.1803C33.608 52.9496 33.3333 52.495 33.3333 51.999L33.3333 27.9999C33.3333 27.504 33.608 27.0493 34.048 26.8187C34.2427 26.7173 34.4547 26.6667 34.6667 26.6667C34.9333 26.6667 35.1973 26.7467 35.4253 26.904Z" fill="url(#paint0_linear_209_105)"/>
<defs>
<linearGradient id="paint0_linear_209_105" x1="73.8667" y1="17.2" x2="2.8" y2="54.4" gradientUnits="userSpaceOnUse">
<stop stop-color="#FF32C7"/>
<stop offset="1" stop-color="#5642DD"/>
</linearGradient>
</defs>
</svg>
