<svg width="45" height="30" viewBox="0 0 45 30" fill="none" xmlns="http://www.w3.org/2000/svg">
<path d="M39.4613 13.9725L23.2113 2.72249C22.9975 2.57499 22.75 2.49999 22.5 2.49999C22.3013 2.49999 22.1025 2.54749 21.92 2.64249C21.5075 2.85874 21.25 3.28499 21.25 3.74999L21.25 26.25C21.25 26.715 21.5075 27.1412 21.92 27.3575C22.3312 27.575 22.8288 27.5425 23.2113 27.2787L39.4613 16.0287C39.7988 15.7937 40 15.41 40 15C40 14.59 39.7988 14.2062 39.4613 13.9725Z" fill="white"/>
<path d="M24.4613 14.4715L8.21125 3.2215C7.9975 3.074 7.75 2.999 7.5 2.999C7.30125 2.999 7.1025 3.0465 6.92 3.1415C6.5075 3.35775 6.25 3.784 6.25 4.249L6.25 26.749C6.25 27.214 6.5075 27.6402 6.92 27.8565C7.33125 28.074 7.82875 28.0415 8.21125 27.7777L24.4613 16.5277C24.7988 16.2927 25 15.909 25 15.499C25 15.089 24.7988 14.7052 24.4613 14.4715Z" fill="white"/>
</svg>
