<svg width="45" height="30" viewBox="0 0 45 30" fill="none" xmlns="http://www.w3.org/2000/svg">
<path d="M5.53875 16.0275L21.7887 27.2775C22.0025 27.425 22.25 27.5 22.5 27.5C22.6987 27.5 22.8975 27.4525 23.08 27.3575C23.4925 27.1413 23.75 26.715 23.75 26.25V3.75001C23.75 3.28501 23.4925 2.85876 23.08 2.64251C22.6688 2.42501 22.1712 2.45751 21.7887 2.72126L5.53875 13.9713C5.20125 14.2063 5 14.59 5 15C5 15.41 5.20125 15.7938 5.53875 16.0275Z" fill="white"/>
<path d="M20.5388 15.5285L36.7887 26.7785C37.0025 26.926 37.25 27.001 37.5 27.001C37.6987 27.001 37.8975 26.9535 38.08 26.8585C38.4925 26.6423 38.75 26.216 38.75 25.751V3.251C38.75 2.786 38.4925 2.35975 38.08 2.1435C37.6688 1.926 37.1712 1.9585 36.7887 2.22225L20.5388 13.4723C20.2013 13.7073 20 14.091 20 14.501C20 14.911 20.2013 15.2948 20.5388 15.5285Z" fill="white"/>
</svg>
