<svg width="21" height="20" viewBox="0 0 21 20" fill="none" xmlns="http://www.w3.org/2000/svg">
<path d="M19.5 2.60901C18.9525 1.94661 18.265 1.41387 17.4868 1.04918C16.7087 0.684497 15.8594 0.496935 15 0.500012C13.5296 0.455491 12.0981 0.976202 11 1.95501C9.90188 0.976202 8.47037 0.455491 7.00001 0.500012C6.14065 0.496935 5.29132 0.684497 4.51318 1.04918C3.73504 1.41387 3.04747 1.94661 2.50001 2.60901C1.54701 3.76501 0.550007 5.85801 1.21101 9.26901C2.26601 14.716 10.177 19.186 10.511 19.369C10.6599 19.452 10.8275 19.4956 10.998 19.4956C11.1685 19.4956 11.3361 19.452 11.485 19.369C11.821 19.182 19.732 14.712 20.785 9.26901C21.45 5.85801 20.453 3.76501 19.5 2.60901ZM18.826 8.88901C18.08 12.74 12.658 16.322 11 17.34C8.66401 15.93 3.85801 12.39 3.17901 8.88901C2.66601 6.24301 3.36801 4.70601 4.04801 3.88201C4.40761 3.44812 4.85879 3.0992 5.36916 2.86026C5.87954 2.62132 6.43647 2.4983 7.00001 2.50001C7.6019 2.45487 8.20522 2.56647 8.75114 2.82392C9.29706 3.08137 9.76696 3.47589 10.115 3.96901C10.2008 4.12695 10.3274 4.25897 10.4817 4.35133C10.6359 4.44369 10.812 4.493 10.9918 4.49412C11.1715 4.49524 11.3483 4.44814 11.5036 4.35772C11.659 4.26729 11.7872 4.13686 11.875 3.98001C12.2224 3.48305 12.6933 3.08519 13.2413 2.82566C13.7893 2.56613 14.3954 2.4539 15 2.50001C15.5647 2.49726 16.123 2.61979 16.6347 2.85876C17.1464 3.09773 17.5986 3.44721 17.959 3.88201C18.637 4.70601 19.339 6.24301 18.826 8.88901Z" fill="#FF32C7"/>
</svg>
