<svg width="16" height="12" viewBox="0 0 16 12" fill="none" xmlns="http://www.w3.org/2000/svg">
<path fill-rule="evenodd" clip-rule="evenodd" d="M8.3307 2.60789C10.5466 2.60799 12.6778 3.45943 14.2837 4.98623C14.4046 5.1041 14.5979 5.10261 14.717 4.98289L15.873 3.81623C15.9333 3.7555 15.967 3.67325 15.9665 3.58767C15.966 3.50209 15.9314 3.42024 15.8704 3.36023C11.6553 -0.67932 5.00546 -0.67932 0.790364 3.36023C0.729306 3.4202 0.694662 3.50202 0.694099 3.5876C0.693536 3.67318 0.7271 3.75546 0.787364 3.81623L1.9437 4.98289C2.06273 5.1028 2.25617 5.10428 2.37703 4.98623C3.98318 3.45933 6.11459 2.60789 8.3307 2.60789ZM8.3307 6.40356C9.54819 6.40349 10.7222 6.85602 11.6247 7.67323C11.7468 7.78921 11.939 7.78669 12.058 7.66756L13.2127 6.50089C13.2735 6.4397 13.3072 6.35668 13.3064 6.27042C13.3055 6.18415 13.2701 6.10184 13.208 6.04189C10.4598 3.48551 6.2039 3.48551 3.4557 6.04189C3.39362 6.10184 3.3582 6.18419 3.35739 6.27049C3.35657 6.35678 3.39043 6.43979 3.45136 6.50089L4.6057 7.66756C4.72469 7.78669 4.91697 7.78921 5.03903 7.67323C5.9409 6.85656 7.11401 6.40406 8.3307 6.40356ZM10.6437 8.95738C10.6455 9.04389 10.6115 9.12729 10.5497 9.18789L8.55236 11.2036C8.49381 11.2628 8.41399 11.2961 8.3307 11.2961C8.24741 11.2961 8.16758 11.2628 8.10903 11.2036L6.11136 9.18789C6.04965 9.12724 6.0157 9.04381 6.01753 8.95731C6.01936 8.8708 6.05681 8.78888 6.12103 8.73089C7.3966 7.65201 9.26479 7.65201 10.5404 8.73089C10.6045 8.78893 10.6419 8.87087 10.6437 8.95738Z" fill="white"/>
</svg>
